<svg width="48" height="15" viewBox="0 0 48 15" fill="none" xmlns="http://www.w3.org/2000/svg">
<g clip-path="url(#clip0_35_860)">
<path d="M27.4262 14.7281H21.2952V3.15283H27.5807V3.20411L26.7564 4.28452L22.7893 4.33607V7.73145H27.2716V7.83411L26.7048 8.86314H22.7893V13.6478H27.9928V13.6992L27.4262 14.7281Z" fill="#F7F6F2"/>
<path d="M46.3855 14.7795L42.3156 8.60604C44.0156 8.65731 45.2522 8.34863 45.8703 7.73145C46.3855 7.21704 46.4888 6.54811 46.4888 5.9309C46.4888 4.59328 45.7158 4.07887 44.2217 4.07887H41.8518V14.7281H40.3577V3.15283H44.3764C45.6128 3.15283 46.6948 3.51287 47.313 4.18166C47.7251 4.64469 47.9828 5.15921 47.9828 5.77659C47.9828 7.98856 46.5401 8.86318 44.2734 9.06918L47.9828 14.7795H46.3855V14.7795Z" fill="#F7F6F2"/>
<path d="M11.867 12.8762C11.3519 13.1334 10.2185 13.8535 7.9 13.8535C4.86032 13.8535 1.92359 11.5384 1.92359 7.52572C1.92359 3.82165 4.55112 1.19792 7.84855 1.19792C10.5791 1.19792 11.6611 2.17527 11.7641 2.22696L12.7945 1.55799C12.0216 0.991993 10.4761 0.0146484 7.84855 0.0146484C3.05718 0.0660277 0.017334 3.41023 0.017334 7.42275C0.017334 12.0015 3.16012 14.9854 7.84855 14.9854C9.18809 14.9854 10.373 14.7282 11.4548 14.2651C11.9187 14.0594 12.2792 13.8535 12.6914 13.5449L11.867 12.8762Z" fill="#F7F6F2"/>
<path d="M15.422 3.10132H15.4736V13.6479H20.162L20.2135 13.6992L19.6467 14.7282H13.9795V3.66721L15.422 3.10132Z" fill="#F7F6F2"/>
<path d="M28.3538 14.7796L34.021 2.79259V2.74121H34.1755L39.6882 14.6767L39.7397 14.7796H38.0912V14.7282C37.6275 13.8021 37.4214 13.1847 33.8665 5.57073L32.0632 9.73797H34.8452L35.3604 10.767L35.4121 10.8697H31.4965C31.3934 11.1784 29.9508 14.1622 29.6932 14.7282L28.3538 14.7796Z" fill="#F7F6F2"/>
<path d="M27.4262 14.7281H21.2952V3.15283H27.5807V3.20411L26.7564 4.28452L22.7893 4.33607V7.73145H27.2716V7.83411L26.7048 8.86314H22.7893V13.6478H27.9928V13.6992L27.4262 14.7281Z" fill="#F7F6F2"/>
<path d="M46.3855 14.7795L42.3156 8.60604C44.0156 8.65731 45.2522 8.34863 45.8703 7.73145C46.3855 7.21704 46.4888 6.54811 46.4888 5.9309C46.4888 4.59328 45.7158 4.07887 44.2217 4.07887H41.8518V14.7281H40.3577V3.15283H44.3764C45.6128 3.15283 46.6948 3.51287 47.313 4.18166C47.7251 4.64469 47.9828 5.15921 47.9828 5.77659C47.9828 7.98856 46.5401 8.86318 44.2734 9.06918L47.9828 14.7795H46.3855V14.7795Z" fill="#F7F6F2"/>
<path d="M11.867 12.8762C11.3519 13.1334 10.2185 13.8535 7.9 13.8535C4.86032 13.8535 1.92359 11.5384 1.92359 7.52572C1.92359 3.82165 4.55112 1.19792 7.84855 1.19792C10.5791 1.19792 11.6611 2.17527 11.7641 2.22696L12.7945 1.55799C12.0216 0.991993 10.4761 0.0146484 7.84855 0.0146484C3.05718 0.0660277 0.017334 3.41023 0.017334 7.42275C0.017334 12.0015 3.16012 14.9854 7.84855 14.9854C9.18809 14.9854 10.373 14.7282 11.4548 14.2651C11.9187 14.0594 12.2792 13.8535 12.6914 13.5449L11.867 12.8762Z" fill="#F7F6F2"/>
<path d="M15.422 3.10132H15.4736V13.6479H20.162L20.2135 13.6992L19.6467 14.7282H13.9795V3.66721L15.422 3.10132Z" fill="#F7F6F2"/>
<path d="M28.3538 14.7796L34.021 2.79259V2.74121H34.1755L39.6882 14.6767L39.7397 14.7796H38.0912V14.7282C37.6275 13.8021 37.4214 13.1847 33.8665 5.57073L32.0632 9.73797H34.8452L35.3604 10.767L35.4121 10.8697H31.4965C31.3934 11.1784 29.9508 14.1622 29.6932 14.7282L28.3538 14.7796Z" fill="#F7F6F2"/>
</g>
<defs>
<clipPath id="clip0_35_860">
<rect width="48" height="15" fill="white"/>
</clipPath>
</defs>
</svg>
