<svg width="48" height="17" viewBox="0 0 48 17" fill="none" xmlns="http://www.w3.org/2000/svg">
<g clip-path="url(#clip0_35_876)">
<path d="M7.74383 0.0377451C9.82669 -0.103402 11.975 0.137489 13.886 0.995034C15.5898 1.74844 17.0692 3.03758 17.9125 4.68179C18.7494 6.2802 18.9668 8.16027 18.6057 9.91426C18.2639 11.6112 17.3431 13.1933 16.0054 14.3274C14.5208 15.6034 12.6137 16.3154 10.6892 16.6579C8.95263 16.9728 7.17887 17.0205 5.41729 16.9936C4.0751 16.9754 2.73227 16.9741 1.39265 16.8894C1.25029 16.8719 1.07201 16.8787 0.976462 16.7558C0.861033 16.6065 0.97518 16.3989 1.13357 16.3349C1.94607 15.8832 2.59504 15.19 3.07343 14.4115C3.61018 13.5646 3.97698 12.6312 4.35662 11.7109C4.99533 10.1301 5.58274 8.53039 6.20926 6.94515C6.67803 5.77583 7.19875 4.60149 8.00868 3.61472C8.77756 2.6706 9.91967 2.01819 11.1419 1.84631C11.2958 1.83941 11.478 1.79487 11.6126 1.88896C11.7531 2.06085 11.5126 2.19008 11.3985 2.2917C10.2422 3.15176 9.57339 4.46097 9.03215 5.74509C8.01637 8.20418 7.23979 10.7567 6.09191 13.1631C5.62827 14.0803 5.08062 14.978 4.31365 15.6843C4.18412 15.8092 4.02059 15.9064 3.92889 16.0639C3.87823 16.2282 4.07959 16.3035 4.21426 16.3016C5.26017 16.3656 6.30994 16.3725 7.3565 16.3537C9.10654 16.2941 10.8854 15.9854 12.4482 15.1825C13.9937 14.4128 15.2358 13.0822 15.8713 11.5026C16.5479 9.85278 16.6601 8.01034 16.3164 6.2733C16.0272 4.79784 15.2903 3.37947 14.1098 2.39772C12.6573 1.17884 10.7084 0.702076 8.83143 0.650008C7.19939 0.637462 5.52502 0.892154 4.07061 1.64807C2.68161 2.35945 1.56964 3.60154 1.11113 5.07574C0.857826 5.96403 0.818067 6.92257 1.07842 7.81399C1.16179 8.03669 0.794981 8.07245 0.696867 7.92001C0.154348 7.21239 -0.031621 6.29337 0.00429032 5.42391C0.0453319 4.34115 0.620555 3.34685 1.37341 2.58027C2.62069 1.30556 4.34957 0.580376 6.09832 0.250406C6.64084 0.14188 7.19233 0.0772662 7.74383 0.0377451ZM24.9614 6.04056C26.0246 5.89628 27.193 5.97344 28.1011 6.58507C28.8924 7.11139 29.3349 8.01912 29.4529 8.92936C29.6094 10.1564 29.3561 11.4104 28.8597 12.5402C28.2563 13.8915 27.27 15.0859 26.0144 15.9083C24.8165 16.6943 23.3415 17.1002 21.9 16.9396C21.083 16.8574 20.2743 16.5162 19.7273 15.9039C18.9988 15.1091 18.793 13.9887 18.8545 12.953C18.9687 11.1476 19.7991 9.41554 21.0592 8.10381C22.0866 7.03047 23.4621 6.24569 24.9614 6.04056ZM25.3404 6.59323C24.7062 6.73939 24.1489 7.1001 23.6692 7.51978C22.9164 8.1885 22.3367 9.02472 21.8903 9.91363C21.1663 11.396 20.7963 13.0785 21.0342 14.717C21.1368 15.3349 21.4017 16.0294 22.0359 16.2903C22.7522 16.5808 23.5653 16.3204 24.181 15.9215C25.2077 15.2389 25.9297 14.2057 26.4716 13.1305C27.1661 11.6958 27.5836 10.0912 27.4252 8.49777C27.3527 7.92189 27.2052 7.29959 26.7563 6.88744C26.3844 6.53991 25.8233 6.47968 25.3404 6.59323ZM43.5494 6.09702C44.2695 5.95336 45.023 5.94082 45.7425 6.09702C46.2466 6.21182 46.7493 6.46149 47.0289 6.90438C47.3938 7.47273 47.3464 8.21673 47.0366 8.79763C46.5749 9.67462 45.7438 10.3001 44.8736 10.7624C43.3621 11.5509 41.6563 11.9016 39.964 12.0647C39.7575 12.7359 39.6979 13.4436 39.7088 14.1418C39.728 14.68 39.8614 15.2502 40.2449 15.6561C40.5675 16.0068 41.0612 16.1674 41.5358 16.1555C42.4785 16.1674 43.3891 15.7935 44.1278 15.2383C44.7357 14.7917 45.2456 14.2315 45.7073 13.6443C45.8907 13.4442 46.2767 13.6788 46.1049 13.9253C45.1461 15.5783 43.375 16.8298 41.4101 16.9691C40.4661 17.0337 39.4369 16.907 38.6776 16.3091C38.0229 15.8079 37.6933 14.9974 37.6214 14.2051C37.5054 12.9756 37.8061 11.7372 38.3185 10.6194C38.8014 9.58805 39.4779 8.6408 40.3161 7.85665C41.2151 7.01416 42.3245 6.35673 43.5494 6.09702ZM43.7212 6.69297C42.9671 7.00224 42.3649 7.57561 41.8564 8.18787C41.067 9.17214 40.5033 10.3195 40.1346 11.5139C41.0087 11.4242 41.8744 11.2191 42.6843 10.8803C43.5333 10.524 44.3394 10.0196 44.9275 9.31266C45.3488 8.80453 45.6367 8.15274 45.5675 7.48841C45.5348 7.15217 45.3847 6.78393 45.0519 6.63463C44.6286 6.44079 44.1387 6.53238 43.7212 6.69297ZM37.5105 6.29713C37.7484 6.08824 38.0985 5.95713 38.4083 6.09075C38.6654 6.19112 38.7597 6.49098 38.7257 6.74065C38.634 7.69041 38.2852 8.59438 37.9068 9.46635C36.9782 11.6005 35.5713 13.51 33.9322 15.1762C33.407 15.6906 32.8561 16.1887 32.2251 16.5789C31.9179 16.7627 31.5813 16.9321 31.2125 16.9377C31.0086 16.9371 30.7752 16.8618 30.6861 16.6673C30.5302 16.3292 30.5732 15.9478 30.5719 15.5871C30.7066 13.315 31.0041 11.0296 30.7309 8.7556C30.6373 8.08248 30.5078 7.38051 30.107 6.80965C30.0063 6.65408 29.8409 6.55747 29.7197 6.42134C29.6959 6.30905 29.8409 6.2689 29.9255 6.24758C30.6316 6.12148 31.428 6.2689 31.9551 6.76951C32.4444 7.20988 32.6484 7.86418 32.7311 8.4915C32.9761 10.3885 32.8414 12.3094 32.6779 14.2076C32.6618 14.4887 32.5906 14.7954 32.7433 15.0539C33.0896 15.0482 33.3499 14.8011 33.5814 14.579C35.1019 13.0301 36.2741 11.1576 37.0084 9.13513C37.2668 8.41308 37.465 7.6672 37.5477 6.90563C37.5708 6.70238 37.5637 6.49537 37.5105 6.29713ZM46.8263 15.1938C47.329 15.0526 47.9062 15.3995 47.9806 15.9108C48.0992 16.4308 47.6574 16.9741 47.1136 16.9841C46.5756 17.0362 46.0856 16.5525 46.1235 16.0287C46.1427 15.6411 46.4364 15.2816 46.8263 15.1938ZM46.8911 15.318C46.5794 15.3839 46.3261 15.6523 46.2793 15.9604C46.1959 16.402 46.5916 16.8537 47.0495 16.8505C47.4939 16.8725 47.8902 16.4628 47.8549 16.0312C47.844 15.5727 47.3451 15.1994 46.8911 15.318Z" fill="#F7F6F2"/>
<path d="M46.6973 15.51C46.9384 15.5251 47.2616 15.4391 47.4245 15.6706C47.5271 15.8663 47.3848 16.0758 47.1853 16.1323C47.2937 16.2898 47.3989 16.4485 47.4996 16.6109C47.136 16.6956 47.1982 16.1028 46.8602 16.1273C46.8589 16.2879 46.8589 16.4485 46.8589 16.6091C46.8185 16.6078 46.7364 16.6053 46.696 16.6047C46.698 16.2396 46.698 15.8745 46.6973 15.51ZM46.8589 15.6317C46.8589 15.7603 46.8602 15.8895 46.8628 16.0181C47.0257 16.025 47.3213 16.0257 47.2931 15.7917C47.2706 15.5903 47.0045 15.6461 46.8589 15.6317Z" fill="#F7F6F2"/>
</g>
<defs>
<clipPath id="clip0_35_876">
<rect width="48" height="17" fill="white"/>
</clipPath>
</defs>
</svg>
