<svg width="68" height="14" viewBox="0 0 68 14" fill="none" xmlns="http://www.w3.org/2000/svg">
<g clip-path="url(#clip0_35_833)">
<mask id="mask0_35_833" style="mask-type:luminance" maskUnits="userSpaceOnUse" x="48" y="0" width="11" height="14">
<path d="M48.1318 0H58.3233V13.8862H48.1318V0Z" fill="white"/>
</mask>
<g mask="url(#mask0_35_833)">
<path d="M53.6841 13.8862C50.0826 13.8862 48.1326 11.6158 48.1326 6.72056C48.1326 1.80036 50.4928 0 53.6435 0C57.3647 0 58.1684 2.54026 58.3137 4.29086H56.5093C56.3639 3.06081 55.7441 1.58386 53.6841 1.58386C51.497 1.58386 49.9794 2.931 49.9794 6.69292C49.9794 10.6317 51.4564 12.3161 53.6988 12.3161C55.7664 12.3161 56.3639 11.0022 56.5242 9.42845H58.3137C58.152 11.6435 57.1036 13.8862 53.6841 13.8862Z" fill="#F7F6F2"/>
</g>
<path d="M45.9705 13.5654L39.8672 2.84603V13.5654H38.175V0.264404H40.4467L45.9448 9.913V0.264404H47.6112V13.5654" fill="#F7F6F2"/>
<path d="M28.9714 13.5654V0.264404H37.5531V1.83257H30.7345V5.77614H37.2772V7.38666H30.7345V11.9954H37.5531V13.5654" fill="#F7F6F2"/>
<mask id="mask1_35_833" style="mask-type:luminance" maskUnits="userSpaceOnUse" x="8" y="0" width="11" height="14">
<path d="M8.87964 0H18.5161V13.8862H8.87964V0Z" fill="white"/>
</mask>
<g mask="url(#mask1_35_833)">
<path d="M13.914 13.8862C10.0743 13.8862 8.95411 11.8149 8.89893 9.62202H10.732C10.7871 11.4279 11.6498 12.3438 13.9831 12.3438C15.5595 12.3438 16.6695 11.5145 16.6695 9.98324C16.6695 8.41873 15.1915 8.01881 13.5425 7.63736C11.4153 7.14534 8.9412 6.57138 8.9412 3.58244C8.9412 1.05975 11.1669 0.000976562 13.4184 0.000976562C17.2499 0.000976562 17.868 2.13955 17.9506 3.4156H16.1463C16.0773 2.73562 15.5217 1.5415 13.4046 1.5415C12.0756 1.5415 10.801 2.1893 10.801 3.45805C10.801 5.26206 12.5225 5.52465 14.3417 5.97156C16.3688 6.46911 18.5025 7.09568 18.5025 9.92796C18.5025 12.6184 16.4038 13.8862 13.915 13.8862" fill="#F7F6F2"/>
</g>
<path d="M0 13.5654V0.264404H8.58266V1.83257H1.76308V5.77614H8.30675V7.38666H1.76397V11.9954H8.58266V13.5654" fill="#F7F6F2"/>
<mask id="mask2_35_833" style="mask-type:luminance" maskUnits="userSpaceOnUse" x="58" y="0" width="10" height="14">
<path d="M58.8528 0.252686H67.4469V13.5712H58.8528V0.252686Z" fill="white"/>
</mask>
<g mask="url(#mask2_35_833)">
<path d="M58.8589 13.5654V0.264404H67.4413V1.83257H60.6227V5.77614H67.1656V7.38666H60.6227V11.9954H67.4413V13.5654" fill="#F7F6F2"/>
</g>
<mask id="mask3_35_833" style="mask-type:luminance" maskUnits="userSpaceOnUse" x="18" y="0" width="11" height="14">
<path d="M18.844 0H28.4804V13.8862H18.844V0Z" fill="white"/>
</mask>
<g mask="url(#mask3_35_833)">
<path d="M23.8655 13.8857C20.0258 13.8857 18.9066 11.8144 18.8513 9.62154H20.6834C20.7386 11.4274 21.6013 12.3433 23.9345 12.3433C25.512 12.3433 26.6209 11.514 26.6209 9.98275C26.6209 8.41824 25.143 8.01832 23.4939 7.63687C21.3676 7.14485 18.8927 6.57089 18.8927 3.58195C18.8927 1.05926 21.1175 0.000488281 23.3699 0.000488281C27.2023 0.000488281 27.8194 2.13906 27.9022 3.41511H26.0977C26.0288 2.73513 25.4733 1.54101 23.3561 1.54101C22.028 1.54101 20.7524 2.18881 20.7524 3.45756C20.7524 5.26157 22.4741 5.52417 24.2932 5.97107C26.3194 6.46862 28.4531 7.09519 28.4531 9.92747C28.4531 12.6179 26.3561 13.8857 23.8655 13.8857Z" fill="#F7F6F2"/>
</g>
</g>
<defs>
<clipPath id="clip0_35_833">
<rect width="68" height="14" fill="white"/>
</clipPath>
</defs>
</svg>
