<svg width="64" height="12" viewBox="0 0 64 12" fill="none" xmlns="http://www.w3.org/2000/svg">
<g clip-path="url(#clip0_35_858)">
<path d="M34.8194 11.1929H43.0791V10.1469H36.2362V6.80177H41.3754V5.74513H36.2362V2.66283H43.0791V1.62212H34.8194V11.1929ZM39.1107 0.0743363L37.9937 1.37522L41.5035 0.0743363H39.1107ZM56.9418 10.1469V1.62212H55.6506V11.1929H64V10.1469H56.9418ZM48.4285 1.62212L43.7324 11.1929H45.3208L46.5224 8.71593H52.1561L53.3679 11.1929H54.9384L50.2372 1.62212H48.4285ZM47.1168 7.51593L49.3303 2.94425L51.5694 7.51593H47.1168ZM30.336 7.18938C32.4522 6.60531 32.6571 4.97257 32.6469 4.3885C32.5214 2.68142 31.4095 1.62212 29.4112 1.62212H23.5904V11.1929H24.9175V7.17611H28.7066L31.494 11.1903H33.167C33.1695 11.1929 31.1635 8.49026 30.336 7.18938ZM29.2318 6.04513H24.9175V2.7531H29.3804C30.4077 2.7531 30.9867 3.24956 31.1943 3.88142C31.3326 4.31416 31.2429 4.8823 31.0149 5.26991C30.6434 5.90973 29.9363 6.04513 29.2318 6.04513ZM15.6151 0C11.8695 0 9.31524 2.73717 9.31524 6.05044C9.31524 9.53894 12.1359 12 15.6151 12C19.0916 12 21.9123 9.57345 21.9123 6.05044C21.9123 2.73717 19.3273 0 15.6151 0ZM15.5715 10.8106C12.9788 10.8106 10.8447 8.65221 10.8447 6.0531C10.8447 3.45664 12.8789 1.19469 15.6714 1.19469C18.3948 1.19469 20.3982 3.45664 20.3982 6.0531C20.3982 8.65221 18.1616 10.8106 15.5715 10.8106ZM5.9719 5.00708H6.93007L8.66707 1.62212H7.26824L5.9719 5.00708ZM1.29122 10.1469V1.62212H0V11.1929H8.34939V10.1469H1.29122Z" fill="#F7F6F2"/>
</g>
<defs>
<clipPath id="clip0_35_858">
<rect width="64" height="12" fill="white"/>
</clipPath>
</defs>
</svg>
